<?xml version="1.0" encoding="UTF-8"?>
<svg width="9px" height="15px" viewBox="0 0 9 15" version="1.1" xmlns="http://www.w3.org/2000/svg" xmlns:xlink="http://www.w3.org/1999/xlink">
    <!-- Generator: Sketch 46.2 (44496) - http://www.bohemiancoding.com/sketch -->
    <title>fb</title>
    <desc>Created with Sketch.</desc>
    <defs></defs>
    <g id="Designs" stroke="none" stroke-width="1" fill="none" fill-rule="evenodd" opacity="0.5">
        <g id="select-on-start" transform="translate(-1139.000000, -1247.000000)" fill="#FFFFFF">
            <g id="Group-5" transform="translate(0.000000, 1108.000000)">
                <g id="Group-23" transform="translate(1073.000000, 139.000000)">
                    <g id="fb" transform="translate(66.000000, 0.000000)">
                        <path d="M8.04518701,0.00296495112 L6.04000313,0 C3.78724782,0 2.33141837,1.37647856 2.33141837,3.50694418 L2.33141837,5.12388028 L0.31529566,5.12388028 C0.141078721,5.12388028 0,5.25404163 0,5.41459373 L0,7.75734986 C0,7.91790196 0.141239586,8.04791507 0.31529566,8.04791507 L2.33141837,8.04791507 L2.33141837,13.9594346 C2.33141837,14.1199867 2.47249709,14.2499998 2.64671403,14.2499998 L5.27718068,14.2499998 C5.45139761,14.2499998 5.59247633,14.1198385 5.59247633,13.9594346 L5.59247633,8.04791507 L7.94979399,8.04791507 C8.12401093,8.04791507 8.26508965,7.91790196 8.26508965,7.75734986 L8.26605484,5.41459373 C8.26605484,5.337505 8.23275576,5.26367772 8.17371825,5.20912262 C8.11468075,5.15456752 8.03424818,5.12388028 7.95059831,5.12388028 L5.59247633,5.12388028 L5.59247633,3.75318337 C5.59247633,3.09437124 5.76283251,2.75992475 6.69408076,2.75992475 L8.04486528,2.75948001 C8.21892136,2.75948001 8.36000008,2.62931865 8.36000008,2.4689148 L8.36000008,0.293530161 C8.36000008,0.133274553 8.21908222,0.00326144623 8.04518701,0.00296495112 L8.04518701,0.00296495112 Z" id="Shape"></path>
                    </g>
                </g>
            </g>
        </g>
    </g>
</svg>