<?xml version="1.0" encoding="UTF-8"?>
<svg width="13px" height="14px" viewBox="0 0 13 14" version="1.1" xmlns="http://www.w3.org/2000/svg" xmlns:xlink="http://www.w3.org/1999/xlink">
    <!-- Generator: Sketch 46.2 (44496) - http://www.bohemiancoding.com/sketch -->
    <title>Group 15</title>
    <desc>Created with Sketch.</desc>
    <defs></defs>
    <g id="Designs" stroke="none" stroke-width="1" fill="none" fill-rule="evenodd" opacity="0.5">
        <g id="select-on-start" transform="translate(-1226.000000, -1247.000000)" fill="#FFFFFF">
            <g id="Group-5" transform="translate(0.000000, 1108.000000)">
                <g id="Group-23" transform="translate(1073.000000, 139.000000)">
                    <g id="Group-15" transform="translate(153.000000, 0.000000)">
                        <g id="Group-7">
                            <path d="M9.25637472,6.55825185 L9.68195366,8.38758193 L10.0904088,10.3172676 L8.19240062,9.90280494 L6.39205134,9.47280261 L1.52847552,4.53473067 C2.1387235,3.25955698 3.16978788,2.24757905 4.44454476,1.6732646 L9.25637472,6.55825185 Z M6.83475404,0.942467115 C6.02437212,0.942467115 5.23716078,1.10210154 4.4934545,1.41555661 L3.22565414,0.128103348 C3.19055044,0.0924599911 3.13596845,0.086102868 3.09369417,0.112400711 C1.85923164,0.887535052 0.803444834,1.95955247 0.0404208077,3.21288374 C0.0143070743,3.25575357 0.0206214606,3.31112031 0.0557251679,3.34676367 L1.27097698,4.58053455 C0.907471673,5.39071457 0.722695605,6.25408796 0.722695605,7.14826894 C0.722695605,10.5700855 3.4645841,13.3538534 6.83475404,13.3538534 C10.2047634,13.3538534 12.9465984,10.5700855 12.9465984,7.14826894 C12.9465984,3.72650669 10.2047634,0.942467115 6.83475404,0.942467115 L6.83475404,0.942467115 Z" id="Fill-1"></path>
                            <path d="M9.45035481,8.24195491 L9.12842813,6.80654912 C8.01998576,7.32316046 7.14180446,8.21478772 6.63322879,9.34032451 L8.04711622,9.66720017 C8.34710309,9.05789438 8.85043459,8.54677081 9.45035481,8.24195491" id="Fill-4"></path>
                        </g>
                    </g>
                </g>
            </g>
        </g>
    </g>
</svg>