<?xml version="1.0" encoding="UTF-8"?>
<svg width="12px" height="13px" viewBox="0 0 12 13" version="1.1" xmlns="http://www.w3.org/2000/svg" xmlns:xlink="http://www.w3.org/1999/xlink">
    <!-- Generator: Sketch 46.2 (44496) - http://www.bohemiancoding.com/sketch -->
    <title>Group 19</title>
    <desc>Created with Sketch.</desc>
    <defs></defs>
    <g id="Designs" stroke="none" stroke-width="1" fill="none" fill-rule="evenodd" opacity="0.5">
        <g id="select-on-start" transform="translate(-1288.000000, -1247.000000)" fill="#FFFFFF">
            <g id="Group-5" transform="translate(0.000000, 1108.000000)">
                <g id="Group-23" transform="translate(1073.000000, 139.000000)">
                    <g id="Group-19" transform="translate(215.000000, 0.853889)">
                        <path d="M1.56727728,8.35993249 C2.00272738,8.35993249 2.37273131,8.51236954 2.67743202,8.81710066 C2.98210414,9.12180319 3.13449738,9.49187264 3.13449738,9.92733762 C3.13449738,10.3628884 2.98210414,10.7329007 2.67743202,11.0376032 C2.37264554,11.3423343 2.00264161,11.4947713 1.56727728,11.4947713 C1.13197013,11.4947713 0.76188043,11.3423343 0.457036765,11.0376032 C0.152250283,10.7329007 0,10.3628884 0,9.92733762 C0,9.49190124 0.152393241,9.12180319 0.457036765,8.81710066 C0.76188043,8.51236954 1.13185577,8.35993249 1.56727728,8.35993249 Z M10.5139328,6.85354793 C11.0962008,8.1571692 11.422917,9.52186823 11.4935669,10.9479882 C11.5042315,11.0949923 11.4553971,11.2227523 11.3464917,11.3315828 C11.2483367,11.4406134 11.1233914,11.4950001 10.9709695,11.4950001 L9.80377456,11.4950001 C9.66230331,11.4950001 9.5411321,11.4472474 9.4403753,11.3520564 C9.33979004,11.2568369 9.28686698,11.1411723 9.28129162,11.0049483 C9.21604558,9.83480596 8.94108014,8.72336803 8.4567384,7.67006263 C7.97239665,6.6169288 7.34249506,5.70253527 6.56714798,4.92696783 C5.79162936,4.15154335 4.87738428,3.52155029 3.82435556,3.0371602 C2.77129825,2.5527987 1.65979971,2.27514653 0.489716967,2.20428946 C0.353649531,2.19874214 0.238053682,2.14575661 0.142843646,2.04501834 C0.0476622013,1.94430866 0,1.8260134 0,1.68990378 L0,0.522535098 C0,0.370126645 0.0544098195,0.244854331 0.163200867,0.146975506 C0.261184288,0.048982304 0.380897328,-3.55271368e-15 0.522397168,-3.55271368e-15 L0.546842988,-3.55271368e-15 C1.9727062,0.0707426854 3.33729761,0.397377162 4.64061722,0.979646079 C5.94407978,1.56202937 7.10178236,2.36204508 8.11406804,3.37983616 C9.13167176,4.3921943 9.9316648,5.55006963 10.5139328,6.85354793 Z M5.17536596,6.31886018 C5.79574655,6.93398413 6.28966648,7.63872311 6.65695421,8.43342024 C7.02427052,9.228003 7.24333938,10.0608451 7.31418937,10.9314606 C7.32485404,11.0838118 7.2786786,11.2144599 7.17514841,11.323462 C7.07719358,11.4378684 6.94933193,11.4949143 6.79159206,11.4949143 L5.68952875,11.4949143 C5.5534899,11.4949143 5.43655025,11.4499638 5.33856683,11.3599485 C5.24055481,11.2703049 5.18617358,11.157414 5.17525159,11.02119 C5.05553855,9.77492917 4.55347001,8.70947113 3.66913175,7.82515896 C2.78485067,6.9408468 1.71955615,6.43864236 0.47336257,6.31886018 C0.337295134,6.30810867 0.224386896,6.25369342 0.134609264,6.15564303 C0.0448602242,6.05759264 0,5.94055553 0,5.8045317 L0,4.70241556 C0,4.54460275 0.0570974301,4.41661397 0.171435248,4.31876374 C0.263871899,4.22626067 0.380897328,4.17996624 0.522397168,4.17996624 L0.563140202,4.17996624 C1.43381168,4.25070893 2.26651351,4.46977106 3.06107414,4.83720983 C3.85563477,5.20453422 4.56036059,5.69841767 5.17536596,6.31886018 Z" id="Shape"></path>
                    </g>
                </g>
            </g>
        </g>
    </g>
</svg>