<?xml version="1.0" encoding="UTF-8"?>
<svg width="13px" height="14px" viewBox="0 0 13 14" version="1.1" xmlns="http://www.w3.org/2000/svg" xmlns:xlink="http://www.w3.org/1999/xlink">
    <!-- Generator: Sketch 46.2 (44496) - http://www.bohemiancoding.com/sketch -->
    <title>Group 21</title>
    <desc>Created with Sketch.</desc>
    <defs></defs>
    <g id="Designs" stroke="none" stroke-width="1" fill="none" fill-rule="evenodd" opacity="0.5">
        <g id="select-on-start" transform="translate(-1096.000000, -1130.000000)" fill="#FFFFFF">
            <g id="Group-5" transform="translate(0.000000, 1108.000000)">
                <g id="Group-11" transform="translate(1074.000000, 20.000000)">
                    <g id="Group-10" transform="translate(0.000000, 2.000000)">
                        <g id="Group-21" transform="translate(22.000000, 0.000000)">
                            <path d="M1.60957083,0 L10.930558,0 C11.8157512,0 12.5400001,0.709971258 12.5400001,1.74354435 L12.5400001,11.8414558 C12.5400001,12.8750289 11.8157512,13.5850001 10.930558,13.5850001 L1.60957083,13.5850001 C0.724120178,13.5850001 -7.99360578e-15,12.8750289 -7.99360578e-15,11.8414558 L-7.99360578e-15,1.74354435 C-7.99360578e-15,0.709971258 0.724120178,0 1.60957083,0 L1.60957083,0 L1.60957083,0 Z M9.13493571,1.50935147 C8.82437776,1.50935147 8.57060094,1.78441303 8.57060094,2.12098683 L8.57060094,3.58486666 C8.57060094,3.92130098 8.82437776,4.19650201 9.13493571,4.19650201 L10.5522748,4.19650201 C10.8628327,4.19650201 11.1168671,3.92130098 11.1168671,3.58486666 L11.1168671,2.12098683 C11.1168671,1.78441303 10.8628327,1.50935147 10.5522748,1.50935147 L9.13493571,1.50935147 L9.13493571,1.50935147 Z M11.1227898,5.74504836 L10.0190988,5.74504836 C10.1235194,6.1144008 10.180043,6.50565215 10.180043,6.9104334 C10.180043,9.17006687 8.43463527,11.0017648 6.28197431,11.0017648 C4.1294421,11.0017648 2.38429187,9.17006687 2.38429187,6.9104334 C2.38429187,6.50537318 2.44068672,6.11426131 2.54523607,5.74504836 L1.39351933,5.74504836 L1.39351933,11.483541 C1.39351933,11.7805015 1.61781117,12.0236213 1.8920601,12.0236213 L10.6245065,12.0236213 C10.8987555,12.0236213 11.1230473,11.780641 11.1230473,11.483541 L11.1230473,5.74504836 L11.1227898,5.74504836 L11.1227898,5.74504836 Z M6.28184555,4.11936761 C4.89103009,4.11936761 3.76339059,5.30288551 3.76339059,6.76299929 C3.76339059,8.22311307 4.89103009,9.40663097 6.28184555,9.40663097 C7.67278977,9.40663097 8.80055802,8.22311307 8.80055802,6.76299929 C8.80055802,5.30288551 7.67291852,4.11936761 6.28184555,4.11936761 L6.28184555,4.11936761 Z" id="Shape"></path>
                        </g>
                    </g>
                </g>
            </g>
        </g>
    </g>
</svg>