<?xml version="1.0" encoding="UTF-8"?>
<svg width="10px" height="15px" viewBox="0 0 10 15" version="1.1" xmlns="http://www.w3.org/2000/svg" xmlns:xlink="http://www.w3.org/1999/xlink">
    <!-- Generator: Sketch 46.2 (44496) - http://www.bohemiancoding.com/sketch -->
    <title>Group 6</title>
    <desc>Created with Sketch.</desc>
    <defs></defs>
    <g id="Designs" stroke="none" stroke-width="1" fill="none" fill-rule="evenodd" opacity="0.5">
        <g id="select-on-start" transform="translate(-1166.000000, -1247.000000)" fill="#FFFFFF">
            <g id="Group-5" transform="translate(0.000000, 1108.000000)">
                <g id="Group-23" transform="translate(1073.000000, 139.000000)">
                    <g id="Group-6" transform="translate(93.000000, 0.000000)">
                        <path d="M4.70249959,7.21300637 C6.88788467,7.21300637 8.65973881,5.59830128 8.65973881,3.6065721 C8.65973881,1.61470509 6.88796028,1.77635684e-15 4.70249959,1.77635684e-15 C2.51696328,1.77635684e-15 0.745260361,1.61470509 0.745260361,3.60650318 C0.745260361,5.59830128 2.51696328,7.21300637 4.70249959,7.21300637 M4.70249959,1.83219513 C5.77772538,1.83219513 6.64939928,2.62662645 6.64939928,3.60650318 C6.64939928,4.58644883 5.77772538,5.38081123 4.70249959,5.38081123 C3.6272738,5.38081123 2.7556755,4.58644883 2.7556755,3.60650318 C2.7556755,2.62662645 3.6272738,1.83219513 4.70249959,1.83219513 M9.26411854,7.65315495 C9.04068027,7.24401731 8.42178273,6.90379286 7.59940891,7.49431003 C6.48788857,8.29253158 4.70249959,8.29253158 4.70249959,8.29253158 C4.70249959,8.29253158 2.9171106,8.29253158 1.80551465,7.49431003 C0.983140835,6.90379286 0.364394516,7.24401731 0.140956245,7.65315495 C-0.248529553,8.3662687 0.191541762,8.7109725 1.18465115,9.29191074 C2.03288483,9.78815467 3.1983933,9.97366899 3.95105135,10.0429267 L3.32285333,10.6155265 C2.43787143,11.4220176 1.58358866,12.2005989 0.990929038,12.7408784 C0.636527963,13.0637367 0.636527963,13.5873391 0.990929038,13.9103353 L1.09784671,14.0077786 C1.45224778,14.3307747 2.02668452,14.3307058 2.38108559,14.0077786 L4.71300988,11.8825645 C5.59799178,12.6889867 6.45219894,13.4676369 7.04485856,14.0077096 C7.39925963,14.3307058 7.97377198,14.3307058 8.32817305,14.0077096 L8.43509072,13.9102664 C8.7894918,13.5872702 8.78941619,13.0637367 8.43509072,12.7408094 L6.10309082,10.6154576 L5.47285123,10.0410661 C6.22611419,9.97049898 7.37914641,9.78408879 8.22034802,9.29191074 C9.21345741,8.71090359 9.65345311,8.36619979 9.26411854,7.65315495" id="Shape"></path>
                    </g>
                </g>
            </g>
        </g>
    </g>
</svg>