<?xml version="1.0" encoding="UTF-8"?>
<svg width="13px" height="13px" viewBox="0 0 13 13" version="1.1" xmlns="http://www.w3.org/2000/svg" xmlns:xlink="http://www.w3.org/1999/xlink">
    <!-- Generator: Sketch 46.2 (44496) - http://www.bohemiancoding.com/sketch -->
    <title>Group 16</title>
    <desc>Created with Sketch.</desc>
    <defs></defs>
    <g id="Designs" stroke="none" stroke-width="1" fill="none" fill-rule="evenodd" opacity="0.5">
        <g id="select-on-start" transform="translate(-1257.000000, -1247.000000)" fill="#FFFFFF">
            <g id="Group-5" transform="translate(0.000000, 1108.000000)">
                <g id="Group-23" transform="translate(1073.000000, 139.000000)">
                    <g id="Group-16" transform="translate(184.000000, 0.853889)">
                        <path d="M2.19663769,5.4096222 L9.83133396,2.20533895 L4.68552514,6.93234698 C4.60047901,7.01619701 4.4907456,7.20955172 4.47850161,7.32807785 L4.33451638,6.39099147 C4.29339972,6.23261749 4.20477618,5.9481728 4.05544907,5.88958799 L2.19663769,5.4096222 Z M4.97802193,9.20485139 L4.60218091,7.74430083 C4.63576917,7.79305084 4.67812678,7.83544217 4.72759914,7.86952479 L5.7885248,8.60713377 L4.97802193,9.20485139 Z M6.94028767,8.17855752 L9.69625187,9.8437569 L11.1710003,2.32108075 L6.05527796,7.36954568 L6.92705091,8.16931621 C6.93151832,8.1722836 6.93573753,8.17559012 6.94028767,8.17855752 L6.94028767,8.17855752 Z M9.81638565,11.4072501 L6.66330863,9.21544922 L4.97223086,10.4626867 C4.83969788,10.560441 4.66877832,10.5849432 4.51457016,10.5286476 C4.36077565,10.4720128 4.24412677,10.3415323 4.20243101,10.1795974 L3.35312792,6.88163745 L0.318933476,5.69273047 C0.127993331,5.61786739 0.00133416158,5.43041297 1.04863975e-05,5.22108463 C-0.00131318879,5.01141716 0.12278136,4.82235187 0.312811478,4.74486053 L11.849468,0.04044132 C11.9017532,0.0175500068 11.9573475,0.00432391472 12.0129419,0.0010173917 C12.0329625,-0.000339130566 12.0530658,-0.000339130566 12.0730864,0.0010173917 C12.1887425,0.0079695683 12.3024958,0.056295674 12.3910993,0.14540223 C12.4004478,0.154643538 12.4091344,0.163969629 12.4172419,0.173889198 C12.4909541,0.260028362 12.5309953,0.364650141 12.5386891,0.471645835 C12.5406746,0.49843715 12.5403437,0.525567595 12.53811,0.552782823 C12.5364554,0.57228283 12.5338908,0.59152849 12.5300025,0.610689367 L10.5826281,11.0816847 C10.5512736,11.2499783 10.4398367,11.3907175 10.2852976,11.4562544 C10.2242431,11.4824523 10.1593003,11.4950001 10.0950193,11.4950001 C9.99706731,11.4950001 9.89977719,11.4654957 9.81638565,11.4072501 Z" id="Fill-1"></path>
                    </g>
                </g>
            </g>
        </g>
    </g>
</svg>