<?xml version="1.0" encoding="UTF-8"?>
<svg width="15px" height="13px" viewBox="0 0 15 13" version="1.1" xmlns="http://www.w3.org/2000/svg" xmlns:xlink="http://www.w3.org/1999/xlink">
    <!-- Generator: Sketch 46.2 (44496) - http://www.bohemiancoding.com/sketch -->
    <title>Group 12</title>
    <desc>Created with Sketch.</desc>
    <defs></defs>
    <g id="Designs" stroke="none" stroke-width="1" fill="none" fill-rule="evenodd" opacity="0.5">
        <g id="select-on-start" transform="translate(-1194.000000, -1248.000000)" fill="#FFFFFF">
            <g id="Group-5" transform="translate(0.000000, 1108.000000)">
                <g id="Group-23" transform="translate(1073.000000, 139.000000)">
                    <g id="Group-12" transform="translate(121.000000, 1.707778)">
                        <path d="M14.6300001,1.36003939 C14.091534,1.59083241 13.5137675,1.7473536 12.9067172,1.81723202 C13.5265569,1.45819753 14.0010286,0.888718464 14.2259055,0.212225063 C13.6444816,0.544714077 13.0026968,0.786143788 12.3188627,0.917021305 C11.7712648,0.35195878 10.9923594,-3.55271368e-15 10.128423,-3.55271368e-15 C8.47097516,-3.55271368e-15 7.12709271,1.29991897 7.12709271,2.90226676 C7.12709271,3.12952192 7.15360365,3.35148187 7.20480873,3.56373005 C4.71086774,3.4425643 2.4994153,2.28679558 1.01932063,0.530562657 C0.760593913,0.958573761 0.613409178,1.45729572 0.613409178,1.98966199 C0.613409178,2.99688704 1.14365193,3.8856055 1.94815982,4.4055546 C1.45630893,4.38964581 0.993718087,4.25876829 0.588738941,4.04122488 L0.588738941,4.07748212 C0.588738941,5.48351363 1.6236219,6.65697162 2.9958321,6.924045 C2.74442039,6.98948376 2.47931097,7.02574099 2.20504583,7.02574099 C2.01124582,7.02574099 1.82382852,7.00717303 1.64006872,6.97179448 C2.02219443,8.12580584 3.13022751,8.96499433 4.44303312,8.98800195 C3.41637357,9.76619134 2.1218555,10.2286792 0.715819346,10.2286792 C0.47356336,10.2286792 0.234940974,10.2145278 0,10.1888841 C1.32834403,11.0139443 2.90535066,11.4950001 4.60028197,11.4950001 C10.1211558,11.4950001 13.1389569,7.07173311 13.1389569,3.23565758 L13.1288927,2.85983562 C13.7185401,2.45302852 14.2286546,1.94191251 14.6300001,1.36003939 L14.6300001,1.36003939 Z" id="Shape"></path>
                    </g>
                </g>
            </g>
        </g>
    </g>
</svg>