<?xml version="1.0" encoding="UTF-8"?>
<svg width="17px" height="11px" viewBox="0 0 17 11" version="1.1" xmlns="http://www.w3.org/2000/svg" xmlns:xlink="http://www.w3.org/1999/xlink">
    <!-- Generator: Sketch 46.2 (44496) - http://www.bohemiancoding.com/sketch -->
    <title>Shape</title>
    <desc>Created with Sketch.</desc>
    <defs></defs>
    <g id="Designs" stroke="none" stroke-width="1" fill="none" fill-rule="evenodd" opacity="0.5">
        <g id="select-on-start" transform="translate(-1117.000000, -1132.000000)" fill="#FFFFFF">
            <g id="Group-5" transform="translate(0.000000, 1108.000000)">
                <g id="Group-11" transform="translate(1074.000000, 20.000000)">
                    <g id="Group-10" transform="translate(0.000000, 2.000000)">
                        <path d="M59.6313262,11.4374971 C59.6110802,11.3897 59.5922062,11.3500527 59.5746739,11.3182882 C59.2845829,10.7459586 58.7302267,10.0434645 57.9119408,9.21060554 L57.8946524,9.19153345 L57.8859929,9.18218112 L57.877242,9.17259497 L57.8684606,9.17259497 C57.4970807,8.78477361 57.2619039,8.52401043 57.1634181,8.39050582 C56.9832165,8.13618907 56.9428465,7.87876601 57.0413323,7.61793602 C57.1109127,7.42086893 57.3722812,7.00468995 57.8248281,6.36883127 C58.062871,6.03184654 58.2513966,5.76176442 58.3906184,5.55828429 C59.3947163,4.09597967 59.8300358,3.16154764 59.6964853,2.75462079 L59.6446202,2.65952757 C59.609769,2.60227791 59.5198207,2.54990482 59.3748972,2.5021411 C59.2296382,2.45447759 59.0439787,2.44659491 58.8175833,2.47835945 L56.3104944,2.49733133 C56.2698804,2.48156596 56.2118866,2.48303562 56.13633,2.5021411 C56.0608649,2.52124659 56.0231171,2.53083274 56.0231171,2.53083274 L55.9794845,2.5547146 L55.9448468,2.58340623 C55.9158194,2.60237811 55.8838954,2.63574591 55.8490442,2.68344283 C55.814376,2.73097274 55.785379,2.78675275 55.7622059,2.85031524 C55.4892508,3.61957832 55.1789138,4.33479826 54.8306155,4.99594166 C54.6158677,5.39017604 54.4186521,5.73183694 54.238542,6.02112475 C54.0586758,6.31031236 53.9077761,6.52337863 53.7859951,6.65995614 C53.6640313,6.79666726 53.5539589,6.9061898 53.4551072,6.98892458 C53.356408,7.07169276 53.2810648,7.10666382 53.2288948,7.09387116 C53.1766028,7.0810785 53.1273599,7.06838604 53.0807392,7.05569359 C52.9995417,6.99844392 52.9342301,6.92058572 52.8849872,6.82205218 C52.8355309,6.72351863 52.8022347,6.59949997 52.7848244,6.45009639 C52.7675055,6.30059261 52.7572606,6.17199798 52.7543334,6.06387829 C52.7516197,5.9558922 52.7528699,5.80314851 52.7587546,5.60608141 C52.7647918,5.40891412 52.7675055,5.27550972 52.7675055,5.2055676 C52.7675055,4.9639433 52.7718047,4.70171047 52.7804337,4.41880228 C52.7892151,4.1358941 52.7963195,3.91173864 52.8022652,3.74660309 C52.8081805,3.58130054 52.8109246,3.40641185 52.8109246,3.22203721 C52.8109246,3.03766258 52.8006797,2.89306877 52.7804337,2.7881222 C52.7604316,2.68330922 52.7297272,2.58156916 52.6892657,2.48293541 C52.6485603,2.38440187 52.5889809,2.30818032 52.5108021,2.25407038 C52.4324708,2.20002723 52.3350827,2.15714009 52.2191865,2.12527534 C51.9115632,2.0490204 51.5198458,2.00776991 51.0438514,2.00135688 C49.9644408,1.98866443 49.2708629,2.06501957 48.9632701,2.23032212 C48.8413977,2.30016404 48.7311119,2.39559127 48.6325041,2.51630321 C48.5280116,2.65622085 48.5134369,2.732576 48.5888715,2.74513485 C48.9371393,2.80228431 49.1836892,2.93899543 49.3287957,3.15513461 L49.3810877,3.26966733 C49.4217627,3.3523019 49.4623766,3.49859917 49.5030211,3.70835872 C49.5436045,3.91811827 49.5697963,4.15015642 49.5813219,4.40433956 C49.6102883,4.86851607 49.6102883,5.26585677 49.5813219,5.59639507 C49.552264,5.92706697 49.5248221,6.18449003 49.4986304,6.36886467 C49.4724386,6.5532393 49.4332882,6.70264288 49.3810877,6.817042 C49.3287957,6.93147451 49.2940055,7.00141663 49.2765647,7.02680155 C49.2591544,7.05218646 49.2446407,7.06818563 49.2331151,7.07446506 C49.1576804,7.1061294 49.0792272,7.12226218 48.9980297,7.12226218 C48.9167103,7.12226218 48.8181026,7.07770498 48.702054,6.98865737 C48.5860359,6.89960977 48.465627,6.77729457 48.3408275,6.62151136 C48.216028,6.46569475 48.0752817,6.24795232 47.9185277,5.96825065 C47.7618956,5.68854898 47.5993788,5.35797729 47.4310687,4.97653556 L47.2918165,4.6999068 C47.2047648,4.5219452 47.08585,4.26281867 46.9349502,3.92276103 C46.783959,3.58256979 46.6505,3.25350115 46.5344819,2.93562191 C46.4881052,2.8021173 46.4184333,2.70047744 46.3255883,2.63053533 L46.2820167,2.60184369 C46.2530503,2.57645878 46.2065516,2.54950401 46.1427645,2.52077898 C46.078886,2.49208734 46.0122327,2.4715122 45.9425304,2.45885315 L43.5572528,2.47782503 C43.3135081,2.47782503 43.1481251,2.53831461 43.0610429,2.65912675 L43.0261917,2.71627621 C43.0087814,2.74810756 43,2.79894419 43,2.86891971 C43,2.93886182 43.0174103,3.02470291 43.0522615,3.12634277 C43.4004683,4.02283103 43.7791356,4.88742115 44.1882633,5.72024672 C44.5973911,6.5530723 44.9529157,7.22393544 45.2546238,7.73223493 C45.5563928,8.24090184 45.8639856,8.72097732 46.1774023,9.17222756 C46.4908189,9.6236448 46.6982794,9.91293262 46.7997838,10.0400242 C46.9014102,10.1673496 46.9812355,10.262543 47.0392598,10.3261055 L47.2569348,10.5549371 C47.3962175,10.7075472 47.6007509,10.8903186 47.8706264,11.1032513 C48.1405629,11.3163175 48.4394048,11.5260771 48.7673046,11.7328639 C49.0952654,11.9393167 49.4767988,12.1077924 49.9121183,12.2380905 C50.3473768,12.3685222 50.7710183,12.4208619 51.1831036,12.3956106 L52.1842439,12.3956106 C52.3872832,12.3764049 52.5411101,12.3064628 52.6456636,12.1857508 L52.6803014,12.1379537 C52.7035965,12.1000099 52.7253975,12.0410568 52.7455215,11.961729 C52.7658895,11.8822675 52.7760125,11.7947229 52.7760125,11.6994961 C52.7700668,11.4261741 52.7890626,11.1798402 52.8324818,10.9605279 C52.8758704,10.7412824 52.9253267,10.5759799 52.9806373,10.4646537 C53.0359175,10.3534277 53.098302,10.2595703 53.1677299,10.1834824 C53.2373103,10.1072274 53.2868886,10.0610335 53.315977,10.0451346 C53.3448824,10.0291354 53.367964,10.01828 53.3853744,10.0117668 C53.5246571,9.96093014 53.6885765,10.0101635 53.8773766,10.1597007 C54.0660241,10.3091043 54.2429632,10.4935791 54.4084682,10.7128246 C54.5738816,10.9322705 54.7726217,11.1784708 55.0047189,11.4517928 C55.2369686,11.725215 55.4400384,11.9284614 55.6140808,12.0621664 L55.7881232,12.1765989 C55.9043548,12.252954 56.0552546,12.3228961 56.2410055,12.3864586 C56.4264211,12.4499877 56.5888769,12.4658867 56.7283731,12.4341222 L58.9568661,12.3960448 C59.1772852,12.3960448 59.3487969,12.3560635 59.4704558,12.2767357 C59.5923587,12.1972742 59.6647747,12.1097297 59.6881308,12.0145029 C59.7114259,11.9191758 59.712676,11.8110227 59.692552,11.6901104 C59.6719096,11.5694986 59.6515722,11.4851606 59.6313262,11.4374971 L59.6313262,11.4374971 Z" id="Shape"></path>
                    </g>
                </g>
            </g>
        </g>
    </g>
</svg>