<?xml version="1.0" encoding="UTF-8"?>
<svg width="12px" height="12px" viewBox="0 0 12 12" version="1.1" xmlns="http://www.w3.org/2000/svg" xmlns:xlink="http://www.w3.org/1999/xlink">
    <!-- Generator: Sketch 46.2 (44496) - http://www.bohemiancoding.com/sketch -->
    <title>viber</title>
    <desc>Created with Sketch.</desc>
    <defs></defs>
    <g id="Designs" stroke="none" stroke-width="1" fill="none" fill-rule="evenodd" opacity="0.5">
        <g id="select-on-start" transform="translate(-1318.000000, -1248.000000)" fill="#FFFFFF">
            <g id="Group-5" transform="translate(0.000000, 1108.000000)">
                <g id="Group-23" transform="translate(1073.000000, 139.000000)">
                    <g id="viber" transform="translate(245.000000, 1.000000)">
                        <path d="M10.8447675,8.64966689 C10.4802621,8.35622182 10.0907451,8.09283844 9.70732419,7.8237774 C8.94263384,7.28670121 8.24320662,7.24495551 7.67260239,8.10903469 C7.35217353,8.59414541 6.90360897,8.61539179 6.43457498,8.40256941 C5.14156398,7.81627692 4.14310369,6.91293228 3.55824556,5.59870478 C3.29952383,5.01725324 3.30293042,4.49595495 3.90825799,4.0847135 C4.22874662,3.86722947 4.55162584,3.60988233 4.52580746,3.13466268 C4.49210012,2.51502145 2.98761144,0.444261488 2.39348977,0.22570169 C2.14764735,0.135247696 1.90282093,0.141134527 1.65270533,0.225193689 C0.25958832,0.693689796 -0.317440626,1.8394105 0.235174407,3.19601123 C1.88378585,7.24334186 4.78506707,10.0609524 8.77884846,11.7806839 C9.00655227,11.8786085 9.2595067,11.9177544 9.38758262,11.9528961 C10.296844,11.9620401 11.3620018,11.086008 11.6696111,10.2166098 C11.9657754,9.38020167 11.3398589,9.04820832 10.8447675,8.64966689 Z M6.36674196,0.640648554 C9.28646061,1.08963146 10.632991,2.47796729 11.0047877,5.41869326 C11.0392719,5.69032418 10.9380902,6.09905551 11.3256349,6.10658587 C11.7306608,6.11432541 11.6330649,5.71163033 11.6364715,5.43973046 C11.6707167,2.67011105 9.2557714,0.102556362 6.45115971,0.00788895089 C6.23956251,0.038339106 5.80172573,-0.138026758 5.77441323,0.336236649 C5.75621485,0.65597822 6.12484401,0.603444979 6.36674196,0.640648554 Z" id="Shape"></path>
                        <path d="M6.93785419,1.44696508 C6.65701949,1.41313821 6.28626868,1.28081899 6.22064696,1.67048535 C6.15212664,2.07948562 6.56534032,2.0379491 6.83084535,2.09738517 C8.63412805,2.50040896 9.26201682,3.15674577 9.55892824,4.94550562 C9.60228759,5.20628924 9.51613666,5.61218174 9.95932238,5.54491648 C10.2877597,5.49489336 10.1691266,5.14697269 10.1965886,4.94374256 C10.2111413,3.22640162 8.739583,1.66331358 6.93785419,1.44696508 Z" id="Shape"></path>
                        <path d="M7.10343251,2.8512581 C6.91598028,2.85588987 6.73199441,2.87618001 6.66308562,3.07651155 C6.5596029,3.3759331 6.77729611,3.44732213 6.99887403,3.48291205 C7.73861259,3.60166467 8.12792036,4.03785791 8.20181951,4.77553459 C8.22178095,4.9757466 8.34884087,5.13797809 8.5422397,5.11514795 C8.81025485,5.08317379 8.83448947,4.84462267 8.82627181,4.61808428 C8.83950971,3.78932608 7.90278644,2.83141619 7.10343251,2.8512581 L7.10343251,2.8512581 Z" id="Shape"></path>
                    </g>
                </g>
            </g>
        </g>
    </g>
</svg>