<?xml version="1.0" encoding="UTF-8"?>
<svg width="17px" height="12px" viewBox="0 0 17 12" version="1.1" xmlns="http://www.w3.org/2000/svg" xmlns:xlink="http://www.w3.org/1999/xlink">
    <!-- Generator: Sketch 46.2 (44496) - http://www.bohemiancoding.com/sketch -->
    <title>vk</title>
    <desc>Created with Sketch.</desc>
    <defs></defs>
    <g id="Designs" stroke="none" stroke-width="1" fill="none" fill-rule="evenodd" opacity="0.5">
        <g id="select-on-start" transform="translate(-1073.000000, -1248.000000)" fill="#FFFFFF">
            <g id="Group-5" transform="translate(0.000000, 1108.000000)">
                <g id="Group-23" transform="translate(1073.000000, 139.000000)">
                    <g id="vk" transform="translate(0.000000, 1.820000)">
                        <path d="M16.6313262,9.43749708 C16.6110802,9.38969996 16.5922062,9.35005274 16.5746739,9.31828819 C16.2845829,8.7459586 15.7302267,8.04346451 14.9119408,7.21060554 L14.8946524,7.19153345 L14.8859929,7.18218112 L14.877242,7.17259497 L14.8684606,7.17259497 C14.4970807,6.78477361 14.2619039,6.52401043 14.1634181,6.39050582 C13.9832165,6.13618907 13.9428465,5.87876601 14.0413323,5.61793602 C14.1109127,5.42086893 14.3722812,5.00468995 14.8248281,4.36883127 C15.062871,4.03184654 15.2513966,3.76176442 15.3906184,3.55828429 C16.3947163,2.09597967 16.8300358,1.16154764 16.6964853,0.754620791 L16.6446202,0.659527569 C16.609769,0.602277909 16.5198207,0.549904824 16.3748972,0.502141105 C16.2296382,0.454477589 16.0439787,0.446594906 15.8175833,0.478359449 L13.3104944,0.497331332 C13.2698804,0.481565964 13.2118866,0.483035617 13.13633,0.502141105 C13.0608649,0.521246592 13.0231171,0.530832737 13.0231171,0.530832737 L12.9794845,0.554714597 L12.9448468,0.58340623 C12.9158194,0.602378112 12.8838954,0.635745913 12.8490442,0.68344283 C12.814376,0.73097274 12.785379,0.786752748 12.7622059,0.850315235 C12.4892508,1.61957832 12.1789138,2.33479826 11.8306155,2.99594166 C11.6158677,3.39017604 11.4186521,3.73183694 11.238542,4.02112475 C11.0586758,4.31031236 10.9077761,4.52337863 10.7859951,4.65995614 C10.6640313,4.79666726 10.5539589,4.9061898 10.4551072,4.98892458 C10.356408,5.07169276 10.2810648,5.10666382 10.2288948,5.09387116 C10.1766028,5.0810785 10.1273599,5.06838604 10.0807392,5.05569359 C9.99954174,4.99844392 9.9342301,4.92058572 9.88498719,4.82205218 C9.83553085,4.72351863 9.80223472,4.59949997 9.78482438,4.45009639 C9.76750551,4.30059261 9.75726055,4.17199798 9.75433342,4.06387829 C9.75161972,3.9558922 9.75286985,3.80314851 9.75875461,3.60608141 C9.76479182,3.40891412 9.76750551,3.27550972 9.76750551,3.2055676 C9.76750551,2.9639433 9.77180474,2.70171047 9.78043368,2.41880228 C9.78921508,2.1358941 9.79631947,1.91173864 9.80226521,1.74660309 C9.80818046,1.58130054 9.81092465,1.40641185 9.81092465,1.22203721 C9.81092465,1.03766258 9.80067968,0.893068774 9.78043368,0.788122197 C9.76043161,0.683309225 9.72972721,0.581569163 9.6892657,0.482935414 C9.64856027,0.384401867 9.58898093,0.308180324 9.5108021,0.254070377 C9.43247082,0.200027232 9.33508268,0.157140088 9.21918653,0.125275342 C8.91156321,0.0490203972 8.51984581,0.00776991261 8.04385139,0.00135688181 C6.96444081,-0.011335575 6.27086288,0.065019573 5.96327005,0.230322122 C5.84139767,0.300164036 5.73111186,0.39559127 5.63250409,0.516303215 C5.52801156,0.65622085 5.51343688,0.732575998 5.58887152,0.74513485 C5.93713929,0.802284307 6.18368922,0.938995427 6.32879571,1.15513461 L6.38108771,1.26966733 C6.42176266,1.3523019 6.46237662,1.49859917 6.50302107,1.70835872 C6.54360455,1.91811827 6.56979628,2.15015642 6.58132187,2.40433956 C6.61028828,2.86851607 6.61028828,3.26585677 6.58132187,3.59639507 C6.55226398,3.92706697 6.52482211,4.18449003 6.49863037,4.36886467 C6.47243864,4.5532393 6.43328824,4.70264288 6.38108771,4.817042 C6.32879571,4.93147451 6.29400552,5.00141663 6.27656469,5.02680155 C6.25915435,5.05218646 6.24464065,5.06818563 6.23311507,5.07446506 C6.15768043,5.1061294 6.07922718,5.12226218 5.99802975,5.12226218 C5.91671035,5.12226218 5.81810258,5.07770498 5.70205397,4.98865737 C5.58603586,4.89960977 5.46562705,4.77729457 5.34082754,4.62151136 C5.21602802,4.46569475 5.07528174,4.24795232 4.9185277,3.96825065 C4.76189562,3.68854898 4.59937879,3.35797729 4.43106868,2.97653556 L4.29181645,2.6999068 C4.20476475,2.5219452 4.08585,2.26281867 3.93495022,1.92276103 C3.78395897,1.58256979 3.65050003,1.25350115 3.53448192,0.935621906 C3.48810516,0.802117301 3.41843331,0.700477443 3.32558833,0.630535326 L3.28201675,0.601843693 C3.25305033,0.576458779 3.20655161,0.549504009 3.14276452,0.520778976 C3.07888595,0.492087343 3.01223271,0.471512202 2.94253037,0.458853147 L0.557252836,0.47782503 C0.31350808,0.47782503 0.148125097,0.538314607 0.0610429075,0.659126755 L0.026191737,0.716276211 C0.00878139729,0.748107557 0,0.798944187 0,0.868919705 C0,0.938861822 0.0174103398,1.02470291 0.0522615102,1.12634277 C0.400468305,2.02283103 0.779135572,2.88742115 1.18826331,3.72024672 C1.59739105,4.5530723 1.95291568,5.22393544 2.25462375,5.73223493 C2.55639281,6.24090184 2.86398565,6.72097732 3.17740225,7.17222756 C3.49081886,7.6236448 3.69827937,7.91293262 3.79978378,8.04002419 C3.90141016,8.16734957 3.9812355,8.262543 4.03925981,8.32610549 L4.25693479,8.55493712 C4.39621751,8.70754721 4.60075089,8.89031859 4.8706264,9.10325126 C5.14056289,9.31631752 5.43940482,9.52607707 5.76730463,9.73286391 C6.09526543,9.93931674 6.47679885,10.1077924 6.91211832,10.2380905 C7.34737682,10.3685222 7.77101825,10.4208619 8.18310361,10.3956106 L9.18424389,10.3956106 C9.38728321,10.3764049 9.54111012,10.3064628 9.64566363,10.1857508 L9.68030136,10.1379537 C9.70359646,10.1000099 9.7253975,10.0410568 9.74552153,9.96172895 C9.76588949,9.88226749 9.77601249,9.79472294 9.77601249,9.69949611 C9.77006676,9.42617408 9.78906263,9.17984021 9.83248176,8.96052792 C9.8758704,8.74128243 9.92532674,8.57597988 9.98063734,8.46465367 C10.0359175,8.35342767 10.098302,8.25957029 10.1677299,8.18348235 C10.2373103,8.10722741 10.2868886,8.06103355 10.315977,8.04513457 C10.3448824,8.0291354 10.367964,8.01828001 10.3853744,8.01176677 C10.5246571,7.96093014 10.6885765,8.01016352 10.8773766,8.1597007 C11.0660241,8.30910427 11.2429632,8.49357911 11.4084682,8.7128246 C11.5738816,8.9322705 11.7726217,9.17847076 12.0047189,9.4517928 C12.2369686,9.72521504 12.4400384,9.92846135 12.6140808,10.0621664 L12.7881232,10.1765989 C12.9043548,10.252954 13.0552546,10.3228961 13.2410055,10.3864586 C13.4264211,10.4499877 13.5888769,10.4658867 13.7283731,10.4341222 L15.9568661,10.3960448 C16.1772852,10.3960448 16.3487969,10.3560635 16.4704558,10.2767357 C16.5923587,10.1972742 16.6647747,10.1097297 16.6881308,10.0145029 C16.7114259,9.91917582 16.712676,9.81102273 16.692552,9.69011038 C16.6719096,9.56949864 16.6515722,9.4851606 16.6313262,9.43749708 L16.6313262,9.43749708 Z" id="Shape"></path>
                    </g>
                </g>
            </g>
        </g>
    </g>
</svg>