<?xml version="1.0" encoding="UTF-8"?>
<svg width="16px" height="17px" viewBox="0 0 16 17" version="1.1" xmlns="http://www.w3.org/2000/svg" xmlns:xlink="http://www.w3.org/1999/xlink">
    <!-- Generator: Sketch 46.2 (44496) - http://www.bohemiancoding.com/sketch -->
    <title>basket</title>
    <desc>Created with Sketch.</desc>
    <defs></defs>
    <g id="Designs" stroke="none" stroke-width="1" fill="none" fill-rule="evenodd">
        <g id="transport-2" transform="translate(-1153.000000, -180.000000)" fill="#333333">
            <g id="Group-13" transform="translate(1153.000000, 176.000000)">
                <g id="basket" transform="translate(0.000000, 4.000000)">
                    <path d="M2.966,15.3633 L12.661,15.3633 L12.661,4.1893 L2.966,4.1893 L2.966,15.3633 Z M4.854,3.1893 L10.791,3.1893 L10.791,1.0003 L4.854,1.0003 L4.854,3.1893 Z M15.126,3.1893 L11.792,3.1893 L11.792,0.5003 C11.792,0.2233 11.568,0.0003 11.292,0.0003 L4.354,0.0003 C4.078,0.0003 3.854,0.2233 3.854,0.5003 L3.854,3.1893 L0.5,3.1893 C0.224,3.1893 0,3.4123 0,3.6893 C0,3.9653 0.224,4.1893 0.5,4.1893 L1.966,4.1893 L1.966,15.8633 C1.966,16.1393 2.189,16.3633 2.466,16.3633 L13.161,16.3633 C13.437,16.3633 13.661,16.1393 13.661,15.8633 L13.661,4.1893 L15.126,4.1893 C15.403,4.1893 15.626,3.9653 15.626,3.6893 C15.626,3.4123 15.403,3.1893 15.126,3.1893 L15.126,3.1893 Z" id="Fill-1"></path>
                    <path d="M5.8716,6.9605 C5.5956,6.9605 5.3716,7.1845 5.3716,7.4605 L5.3716,12.6045 C5.3716,12.8805 5.5956,13.1045 5.8716,13.1045 C6.1476,13.1045 6.3716,12.8805 6.3716,12.6045 L6.3716,7.4605 C6.3716,7.1845 6.1476,6.9605 5.8716,6.9605" id="Fill-3"></path>
                    <path d="M9.6484,6.9605 C9.3724,6.9605 9.1484,7.1845 9.1484,7.4605 L9.1484,12.6045 C9.1484,12.8805 9.3724,13.1045 9.6484,13.1045 C9.9244,13.1045 10.1484,12.8805 10.1484,12.6045 L10.1484,7.4605 C10.1484,7.1845 9.9244,6.9605 9.6484,6.9605" id="Fill-4"></path>
                </g>
            </g>
        </g>
    </g>
</svg>