<?xml version="1.0" encoding="UTF-8"?>
<svg width="60px" height="29px" viewBox="0 0 60 29" version="1.1" xmlns="http://www.w3.org/2000/svg" xmlns:xlink="http://www.w3.org/1999/xlink">
    <!-- Generator: Sketch 46.2 (44496) - http://www.bohemiancoding.com/sketch -->
    <title>car</title>
    <desc>Created with Sketch.</desc>
    <defs></defs>
    <g id="Designs" stroke="none" stroke-width="1" fill="none" fill-rule="evenodd">
        <g id="transport-1" transform="translate(-403.000000, -370.000000)" fill="#333333">
            <g id="Group-Copy-2" transform="translate(312.000000, 232.000000)">
                <g id="car" transform="translate(121.000000, 153.000000) scale(-1, 1) translate(-121.000000, -153.000000) translate(91.000000, 138.000000)">
                    <path d="M55.9756969,21.8708333 L54.1380719,21.8708333 C53.6767594,18.9341 51.1814781,16.6759667 48.1581656,16.6759667 C45.1348531,16.6759667 42.6395719,18.9341 42.1782594,21.8708333 L17.7916031,21.8708333 C17.3302906,18.9341 14.8350094,16.6759667 11.8116969,16.6759667 C8.78647813,16.6759667 6.29310313,18.9341 5.82988438,21.8708333 L3.58622813,21.8708333 C2.65979063,21.8708333 1.90682187,21.1052333 1.90682187,20.1675667 L1.90682187,14.3888333 L15.1781344,13.2230333 L48.9931031,13.2230333 C49.3934156,13.2230333 49.7727594,13.0297 50.0091344,12.7010333 C50.2455094,12.3743 50.3141344,11.9489667 50.1940406,11.5623 C50.1749781,11.5004333 50.1482906,11.4385667 50.1177906,11.3825 L45.0852906,2.2359 L47.4433219,2.2359 C47.5291031,2.2359 47.6091656,2.2707 47.7101969,2.38283333 L56.9002281,11.6106333 L54.5345719,11.6106333 C54.0065406,11.6106333 53.5814469,12.0437 53.5814469,12.5773 C53.5814469,13.1128333 54.0065406,13.5439667 54.5345719,13.5439667 L57.8647906,13.5439667 L57.8647906,19.9568333 C57.8647906,21.0124333 57.0165094,21.8708333 55.9756969,21.8708333 L55.9756969,21.8708333 Z M48.1581656,27.0676333 C45.8592281,27.0676333 43.9872906,25.1691 43.9872906,22.8375 C43.9872906,20.5059 45.8592281,18.6093 48.1581656,18.6093 C50.4571031,18.6093 52.3271344,20.5059 52.3271344,22.8375 C52.3271344,25.1691 50.4571031,27.0676333 48.1581656,27.0676333 L48.1581656,27.0676333 Z M11.8116969,27.0676333 C9.51085313,27.0676333 7.64082188,25.1691 7.64082188,22.8375 C7.64082188,20.5059 9.51085313,18.6093 11.8116969,18.6093 C14.1106344,18.6093 15.9806656,20.5059 15.9806656,22.8375 C15.9806656,25.1691 14.1106344,27.0676333 11.8116969,27.0676333 L11.8116969,27.0676333 Z M25.7730719,2.2359 L31.2630719,2.2359 L31.2630719,11.2897 L17.5704781,11.2897 L25.7730719,2.2359 Z M42.9045406,2.2359 L47.8836656,11.2897 L33.1693219,11.2897 L33.1693219,2.2359 L42.9045406,2.2359 Z M59.2620719,11.2858333 L49.0960406,1.0585 C48.6785719,0.5771 48.0761969,0.302566667 47.4433219,0.302566667 L25.7730719,0.302566667 C25.2984156,0.302566667 24.8428219,0.503633333 24.5263844,0.853566667 L15.0523219,11.2935667 L1.39785313,12.4922333 C0.601040625,12.5637667 0.000571875,13.2269 0.000571875,14.0389 L0.000571875,20.1675667 C0.000571875,22.1724333 1.60754063,23.8041667 3.58622813,23.8041667 L5.82988438,23.8041667 C6.29310313,26.7428333 8.78647813,29.0009667 11.8116969,29.0009667 C14.8350094,29.0009667 17.3302906,26.7428333 17.7916031,23.8041667 L42.1782594,23.8041667 C42.6395719,26.7428333 45.1348531,29.0009667 48.1581656,29.0009667 C51.1814781,29.0009667 53.6767594,26.7428333 54.1380719,23.8041667 L55.9756969,23.8041667 C58.0687594,23.8041667 59.7710406,22.0777 59.7710406,19.9568333 L59.7710406,12.5773 C59.7710406,12.1191 59.6051969,11.6783 59.2620719,11.2858333 L59.2620719,11.2858333 Z" id="Fill-1"></path>
                    <path d="M30.0343762,15 L26.9656238,15 C26.4306682,15 26,15.448 26,16 C26,16.552 26.4306682,17 26.9656238,17 L30.0343762,17 C30.5674005,17 31,16.552 31,16 C31,15.448 30.5674005,15 30.0343762,15" id="Fill-4"></path>
                </g>
            </g>
        </g>
    </g>
</svg>