<?xml version="1.0" encoding="UTF-8"?>
<svg width="52px" height="43px" viewBox="0 0 52 43" version="1.1" xmlns="http://www.w3.org/2000/svg" xmlns:xlink="http://www.w3.org/1999/xlink">
    <!-- Generator: Sketch 46.2 (44496) - http://www.bohemiancoding.com/sketch -->
    <title>diary</title>
    <desc>Created with Sketch.</desc>
    <defs>
        <filter x="-4.3%" y="-2.8%" width="108.7%" height="108.7%" filterUnits="objectBoundingBox" id="filter-1">
            <feOffset dx="0" dy="3" in="SourceAlpha" result="shadowOffsetOuter1"></feOffset>
            <feGaussianBlur stdDeviation="2" in="shadowOffsetOuter1" result="shadowBlurOuter1"></feGaussianBlur>
            <feColorMatrix values="0 0 0 0 0   0 0 0 0 0   0 0 0 0 0  0 0 0 0.05 0" type="matrix" in="shadowBlurOuter1" result="shadowMatrixOuter1"></feColorMatrix>
            <feMerge>
                <feMergeNode in="shadowMatrixOuter1"></feMergeNode>
                <feMergeNode in="SourceGraphic"></feMergeNode>
            </feMerge>
        </filter>
    </defs>
    <g id="Designs" stroke="none" stroke-width="1" fill="none" fill-rule="evenodd">
        <g id="select-on-start" transform="translate(-663.000000, -376.000000)" fill="#F03253">
            <g id="Group-13" transform="translate(363.000000, 328.000000)">
                <g id="Group-Copy" filter="url(#filter-1)" transform="translate(228.000000, 0.000000)">
                    <g id="Group-31-Copy" transform="translate(64.000000, 32.000000)">
                        <g id="diary" transform="translate(12.750000, 17.000000)">
                            <path d="M21.9016667,4.4506 L21.9016667,30.33735 C23.68525,29.5780167 27.5286667,28.1670167 31.4358333,28.1670167 C35.343,28.1670167 39.1864167,29.5780167 40.97,30.33735 L40.97,4.45343333 C40.1001667,3.76351667 36.74975,1.4161 31.4358333,1.4161 C26.0935833,1.4161 22.7658333,3.76068333 21.9016667,4.4506 M21.1933333,32.1450167 C21.0644167,32.1450167 20.9340833,32.1081833 20.82075,32.0401833 C20.6125,31.90985 20.485,31.6817667 20.485,31.4366833 L20.485,4.12335 C20.485,3.92643333 20.5671667,3.73943333 20.71025,3.60485 C20.8675,3.45751667 24.65,-0.000566666667 31.4358333,-0.000566666667 C38.2216667,-0.000566666667 42.0041667,3.45751667 42.1614167,3.60485 C42.3045,3.73943333 42.3866667,3.92643333 42.3866667,4.12335 L42.3866667,31.4366833 C42.3866667,31.6817667 42.2591667,31.90985 42.0509167,32.0387667 C41.84125,32.1662667 41.5805833,32.1790167 41.361,32.0699333 C41.3114167,32.04585 36.3233333,29.5836833 31.4358333,29.5836833 C26.5384167,29.5836833 21.56025,32.04585 21.5106667,32.0699333 C21.4100833,32.1195167 21.3024167,32.1450167 21.1933333,32.1450167" id="Fill-1"></path>
                            <path d="M10.9508333,28.1673 C14.858,28.1673 18.7014167,29.5783 20.485,30.3376333 L20.485,4.45371667 C19.6151667,3.76238333 16.26475,1.41638333 10.9508333,1.41638333 C5.60858333,1.41638333 2.28083333,3.75955 1.41666667,4.45088333 L1.41666667,30.3376333 C3.20025,29.5783 7.04366667,28.1673 10.9508333,28.1673 M0.708333333,32.1453 C0.579416667,32.1453 0.449083333,32.1084667 0.33575,32.03905 C0.1275,31.9101333 0,31.6806333 0,31.4369667 L0,4.12221667 C0,3.92671667 0.0821666667,3.73971667 0.22525,3.60513333 C0.3825,3.4578 4.165,-0.000283333333 10.9508333,-0.000283333333 C17.7366667,-0.000283333333 21.5191667,3.4578 21.6764167,3.60513333 C21.8195,3.73971667 21.9016667,3.92671667 21.9016667,4.12221667 L21.9016667,31.4369667 C21.9016667,31.6806333 21.7741667,31.9101333 21.5659167,32.0376333 C21.35625,32.16655 21.097,32.1793 20.876,32.0702167 C20.8264167,32.0447167 15.8383333,29.5839667 10.9508333,29.5839667 C6.05341667,29.5839667 1.07525,32.0447167 1.02566667,32.0702167 C0.925083333,32.1198 0.817416667,32.1453 0.708333333,32.1453" id="Fill-4"></path>
                            <path d="M24.1207333,11.659875 C23.8657333,11.659875 23.6192333,11.5210417 23.49315,11.2802083 C23.3104,10.933125 23.4449833,10.5067083 23.7920667,10.3239583 C25.4014,9.479625 27.2544,8.96395833 29.2958167,8.791125 C29.6939,8.75995833 30.0282333,9.046125 30.0608167,9.437125 C30.0948167,9.82529167 29.8058167,10.168125 29.4162333,10.202125 C27.5632333,10.359375 25.8915667,10.822625 24.4479833,11.579125 C24.3445667,11.6329583 24.2312333,11.659875 24.1207333,11.659875" id="Fill-7"></path>
                            <path d="M38.7522083,21.0479833 C38.6657917,21.0479833 38.579375,21.0324 38.4957917,20.9998167 C30.130375,17.7485667 24.5317083,20.91765 24.4764583,20.95165 C24.1392917,21.1514 23.7057917,21.0338167 23.508875,20.69665 C23.3119583,20.3594833 23.4252917,19.9245667 23.7624583,19.72765 C24.014625,19.5817333 30.015625,16.1803167 39.008625,19.6794833 C39.3727083,19.82115 39.5540417,20.2319833 39.412375,20.5974833 C39.3032917,20.8765667 39.0355417,21.0479833 38.7522083,21.0479833" id="Fill-9"></path>
                            <path d="M18.2665,11.659875 C18.1800833,11.659875 18.0936667,11.6442917 18.0100833,11.6117083 C9.64466667,8.35904167 4.046,11.5309583 3.99075,11.5635417 C3.655,11.7647083 3.22008333,11.6457083 3.02175,11.3085417 C2.82625,10.971375 2.93958333,10.5364583 3.27675,10.3395417 C3.52891667,10.193625 9.52991667,6.79220833 18.5229167,10.291375 C18.887,10.4330417 19.0683333,10.843875 18.9266667,11.209375 C18.8175833,11.4884583 18.5498333,11.659875 18.2665,11.659875" id="Fill-11"></path>
                            <path d="M18.2665,21.0479833 C18.1800833,21.0479833 18.0936667,21.0324 18.0100833,20.9998167 C9.64466667,17.7485667 4.046,20.91765 3.99075,20.95165 C3.655,21.1514 3.22008333,21.0338167 3.02175,20.69665 C2.82625,20.3594833 2.93958333,19.9245667 3.27675,19.72765 C3.52891667,19.5817333 9.52991667,16.1803167 18.5229167,19.6794833 C18.887,19.82115 19.0683333,20.2319833 18.9266667,20.5974833 C18.8175833,20.8765667 18.5498333,21.0479833 18.2665,21.0479833" id="Fill-13"></path>
                            <path d="M21.192625,34.704225 C21.0962917,34.704225 20.997125,34.6843917 20.9022083,34.6418917 C11.8567917,30.5590583 3.46870833,34.5908917 3.385125,34.6305583 C3.104625,34.7693917 2.764625,34.7070583 2.552125,34.4761417 L0.187708333,31.916225 C-0.0772083333,31.6300583 -0.0587916667,31.1823917 0.227375,30.9160583 C0.514958333,30.6511417 0.962625,30.6653083 1.22895833,30.955725 L3.24629167,33.140225 C5.250875,32.2916417 13.007125,29.5248917 21.4844583,33.3498917 C21.8414583,33.5113917 22.000125,33.930725 21.838625,34.287725 C21.7210417,34.5498083 21.4632083,34.704225 21.192625,34.704225" id="Fill-15"></path>
                            <path d="M21.1939,34.704225 C20.9233167,34.704225 20.6654833,34.5498083 20.5479,34.287725 C20.3864,33.930725 20.5450667,33.5113917 20.9020667,33.3498917 C29.3794,29.523475 37.13565,32.2916417 39.1402333,33.140225 L41.1575667,30.955725 C41.4239,30.6653083 41.8715667,30.6511417 42.15915,30.9160583 C42.4453167,31.1823917 42.4637333,31.6300583 42.1988167,31.916225 L39.8344,34.4761417 C39.6233167,34.7070583 39.2847333,34.7708083 39.0028167,34.631975 C38.9178167,34.5923083 30.5070667,30.5703917 21.4843167,34.6418917 C21.3908167,34.6843917 21.2902333,34.704225 21.1939,34.704225" id="Fill-17"></path>
                            <path d="M38.526675,14.219225 C38.356675,14.219225 38.1895083,14.1583083 38.0563417,14.040725 L35.6182583,11.881725 L32.5185917,13.3026417 C32.2975917,13.4018083 32.0425917,13.3833917 31.8400083,13.2516417 C31.637425,13.122725 31.514175,12.8960583 31.5155917,12.655225 L31.548175,0.862891667 C31.5495917,0.471891667 31.866925,0.155975 32.2565083,0.155975 L32.2593417,0.155975 C32.6503417,0.157391667 32.9662583,0.476141667 32.9648417,0.865725 L32.9350917,11.5516417 L35.4482583,10.4013083 C35.7018417,10.2865583 36.002175,10.3276417 36.2132583,10.5160583 L37.8183417,11.9383917 L37.8183417,2.18464167 C37.8183417,1.79364167 38.135675,1.47630833 38.526675,1.47630833 C38.917675,1.47630833 39.2350083,1.79364167 39.2350083,2.18464167 L39.2350083,13.5108917 C39.2350083,13.7885583 39.0720917,14.0421417 38.8170917,14.1568917 C38.7250083,14.197975 38.624425,14.219225 38.526675,14.219225" id="Fill-20"></path>
                        </g>
                    </g>
                </g>
            </g>
        </g>
    </g>
</svg>