<?xml version="1.0" encoding="UTF-8"?>
<svg width="51px" height="47px" viewBox="0 0 51 47" version="1.1" xmlns="http://www.w3.org/2000/svg" xmlns:xlink="http://www.w3.org/1999/xlink">
    <!-- Generator: Sketch 46.2 (44496) - http://www.bohemiancoding.com/sketch -->
    <title>fine</title>
    <desc>Created with Sketch.</desc>
    <defs>
        <filter x="-4.3%" y="-2.8%" width="108.7%" height="108.7%" filterUnits="objectBoundingBox" id="filter-1">
            <feOffset dx="0" dy="3" in="SourceAlpha" result="shadowOffsetOuter1"></feOffset>
            <feGaussianBlur stdDeviation="2" in="shadowOffsetOuter1" result="shadowBlurOuter1"></feGaussianBlur>
            <feColorMatrix values="0 0 0 0 0   0 0 0 0 0   0 0 0 0 0  0 0 0 0.05 0" type="matrix" in="shadowBlurOuter1" result="shadowMatrixOuter1"></feColorMatrix>
            <feMerge>
                <feMergeNode in="shadowMatrixOuter1"></feMergeNode>
                <feMergeNode in="SourceGraphic"></feMergeNode>
            </feMerge>
        </filter>
        <polygon id="path-2" points="21.2897021 39.6666667 42.5793333 39.6666667 42.5793333 0.79475 21.2897021 0.79475 7.08333333e-05 0.79475 7.08333333e-05 39.6666667 21.2897021 39.6666667"></polygon>
    </defs>
    <g id="Designs" stroke="none" stroke-width="1" fill="none" fill-rule="evenodd">
        <g id="select-on-start" transform="translate(-1117.000000, -372.000000)">
            <g id="Group-13" transform="translate(363.000000, 328.000000)">
                <g id="Group-Copy-3" filter="url(#filter-1)" transform="translate(684.000000, 0.000000)">
                    <g id="Group-32" transform="translate(29.000000, 32.000000)">
                        <g id="Group-31" transform="translate(35.000000, 0.000000)">
                            <g id="fine" transform="translate(10.333333, 11.333333)">
                                <g id="Group-3" transform="translate(0.000000, 0.621917)">
                                    <mask id="mask-3" fill="white">
                                        <use xlink:href="#path-2"></use>
                                    </mask>
                                    <g id="Clip-2"></g>
                                    <path d="M28.0065083,38.25 C21.356675,38.25 15.9393417,33.49 15.1247583,26.9308333 C15.1120083,26.8316667 15.0808417,26.741 15.0340917,26.6588333 L29.7065083,11.985 C29.7830083,12.03175 29.869425,12.06575 29.9643417,12.0785 C36.3492583,13.0319167 41.1630917,18.6249167 41.1630917,25.092 C41.1630917,32.34675 35.2612583,38.25 28.0065083,38.25 L28.0065083,38.25 Z M11.4215917,28.26675 L10.5800917,27.4238333 C10.5800917,27.4238333 10.5800917,27.4224167 10.578675,27.4224167 L8.93534167,25.7805 L6.44909167,23.2928333 L12.3948417,17.3485 L17.404175,22.2841667 L11.4215917,28.26675 Z M3.83675833,33.16275 C3.659675,33.3384167 3.35225833,33.34125 3.175175,33.16275 L1.55309167,31.5406667 C1.37034167,31.3579167 1.37034167,31.0618333 1.55309167,30.8790833 L6.791925,25.64025 L7.93375833,26.7820833 L9.07700833,27.9239167 L3.83675833,33.16275 Z M18.407175,21.2811667 L13.396425,16.3455 L20.3310083,9.41375 L25.3403417,14.348 L18.407175,21.2811667 Z M27.1395083,2.60383333 C27.680675,2.06408333 28.6213417,2.06408333 29.1625083,2.60383333 L32.1120083,5.55333333 C32.670175,6.11008333 32.670175,7.01816667 32.1120083,7.57633333 L26.3433417,13.3464167 L21.3325917,8.41075 L27.1395083,2.60383333 Z M30.8738417,10.8176667 L33.1135917,8.57791667 C34.2242583,7.46725 34.2242583,5.661 33.1135917,4.55175 L30.1640917,1.60225 C29.0888417,0.525583333 27.213175,0.525583333 26.137925,1.60225 L4.947425,22.79275 C4.66975833,23.069 4.66975833,23.5180833 4.947425,23.7943333 L5.79034167,24.6386667 L0.551508333,29.8775 C-0.183741667,30.6113333 -0.183741667,31.807 0.551508333,32.54225 L2.17359167,34.1643333 C2.54050833,34.5326667 3.02359167,34.7154167 3.506675,34.7154167 C3.98834167,34.7154167 4.471425,34.5326667 4.83834167,34.1643333 L10.0785917,28.9255 L10.9215083,29.7698333 C11.054675,29.9015833 11.2345917,29.9766667 11.4215917,29.9766667 C11.6100083,29.9766667 11.789925,29.9015833 11.9230917,29.7698333 L13.8455083,27.846 C15.0553417,34.7366667 20.8877583,39.6666667 28.0065083,39.6666667 C36.0418417,39.6666667 42.5797583,33.12875 42.5797583,25.092 C42.5797583,18.1701667 37.5945083,12.1649167 30.8738417,10.8176667 L30.8738417,10.8176667 Z" id="Fill-1" fill="#6179D0" mask="url(#mask-3)"></path>
                                </g>
                                <path d="M29.7392333,25.0054417 L27.5589833,25.0054417 L27.5589833,20.6449417 L29.7392333,20.6449417 C30.9419833,20.6449417 31.9194833,21.6224417 31.9194833,22.8251917 C31.9194833,24.0279417 30.9419833,25.0054417 29.7392333,25.0054417 M29.7392333,19.228275 L26.85065,19.228275 C26.45965,19.228275 26.1423167,19.5456083 26.1423167,19.9366083 L26.1423167,28.2963583 L23.93515,28.2963583 C23.54415,28.2963583 23.2268167,28.6136917 23.2268167,29.0046917 C23.2268167,29.3971083 23.54415,29.713025 23.93515,29.713025 L26.1423167,29.713025 L26.1423167,31.867775 C26.1423167,32.258775 26.45965,32.5761083 26.85065,32.5761083 C27.24165,32.5761083 27.5589833,32.258775 27.5589833,31.867775 L27.5589833,29.713025 L29.7123167,29.713025 C30.1047333,29.713025 30.42065,29.3971083 30.42065,29.0046917 C30.42065,28.6136917 30.1047333,28.2963583 29.7123167,28.2963583 L27.5589833,28.2963583 L27.5589833,26.4221083 L29.7392333,26.4221083 C31.7225667,26.4221083 33.33615,24.808525 33.33615,22.8251917 C33.33615,20.8418583 31.7225667,19.228275 29.7392333,19.228275" id="Fill-4" fill="#6179D0"></path>
                            </g>
                        </g>
                    </g>
                </g>
            </g>
        </g>
    </g>
</svg>