<?xml version="1.0" encoding="UTF-8"?>
<svg width="51px" height="46px" viewBox="0 0 51 46" version="1.1" xmlns="http://www.w3.org/2000/svg" xmlns:xlink="http://www.w3.org/1999/xlink">
    <!-- Generator: Sketch 46.2 (44496) - http://www.bohemiancoding.com/sketch -->
    <title>my_house</title>
    <desc>Created with Sketch.</desc>
    <defs>
        <filter x="-4.3%" y="-2.8%" width="108.7%" height="108.7%" filterUnits="objectBoundingBox" id="filter-1">
            <feOffset dx="0" dy="3" in="SourceAlpha" result="shadowOffsetOuter1"></feOffset>
            <feGaussianBlur stdDeviation="2" in="shadowOffsetOuter1" result="shadowBlurOuter1"></feGaussianBlur>
            <feColorMatrix values="0 0 0 0 0   0 0 0 0 0   0 0 0 0 0  0 0 0 0.05 0" type="matrix" in="shadowBlurOuter1" result="shadowMatrixOuter1"></feColorMatrix>
            <feMerge>
                <feMergeNode in="shadowMatrixOuter1"></feMergeNode>
                <feMergeNode in="SourceGraphic"></feMergeNode>
            </feMerge>
        </filter>
    </defs>
    <g id="Designs" stroke="none" stroke-width="1" fill="none" fill-rule="evenodd">
        <g id="select-on-start" transform="translate(-434.000000, -373.000000)" fill="#2D9FD0">
            <g id="Group-13" transform="translate(363.000000, 328.000000)">
                <g id="Group" filter="url(#filter-1)">
                    <g id="Group-8" transform="translate(64.000000, 32.000000)">
                        <g id="my_house" transform="translate(11.333333, 14.166667)">
                            <path d="M15.3453333,35.9997667 L38.8095833,35.9997667 L38.9413333,5.69585 L15.3453333,5.69585 L15.3453333,35.9997667 Z M39.5150833,37.4164333 L14.637,37.4164333 C14.246,37.4164333 13.9286667,37.0991 13.9286667,36.7081 L13.9286667,4.98751667 C13.9286667,4.59651667 14.246,4.27918333 14.637,4.27918333 L39.6525,4.27918333 C39.8409167,4.27918333 40.0208333,4.35426667 40.154,4.48743333 C40.2871667,4.6206 40.3608333,4.80193333 40.3608333,4.99035 L40.2234167,36.7109333 C40.222,37.1005167 39.9046667,37.4164333 39.5150833,37.4164333 Z" id="Fill-1"></path>
                            <path d="M19.69875,16.69485 L23.8793333,16.69485 L23.8793333,10.6485167 L19.69875,10.6485167 L19.69875,16.69485 Z M24.5876667,18.1115167 L18.9904167,18.1115167 C18.5994167,18.1115167 18.2820833,17.7941833 18.2820833,17.4031833 L18.2820833,9.94018333 C18.2820833,9.54918333 18.5994167,9.23185 18.9904167,9.23185 L24.5876667,9.23185 C24.9800833,9.23185 25.296,9.54918333 25.296,9.94018333 L25.296,17.4031833 C25.296,17.7941833 24.9800833,18.1115167 24.5876667,18.1115167 L24.5876667,18.1115167 Z" id="Fill-3"></path>
                            <path d="M30.27275,16.69485 L34.4533333,16.69485 L34.4533333,10.6485167 L30.27275,10.6485167 L30.27275,16.69485 Z M35.1616667,18.1115167 L29.5644167,18.1115167 C29.172,18.1115167 28.8560833,17.7941833 28.8560833,17.4031833 L28.8560833,9.94018333 C28.8560833,9.54918333 29.172,9.23185 29.5644167,9.23185 L35.1616667,9.23185 C35.5526667,9.23185 35.87,9.54918333 35.87,9.94018333 L35.87,17.4031833 C35.87,17.7941833 35.5526667,18.1115167 35.1616667,18.1115167 L35.1616667,18.1115167 Z" id="Fill-5"></path>
                            <path d="M35.7833,37.3929167 C35.3923,37.3929167 35.0749667,37.0755833 35.0749667,36.6845833 L35.0749667,23.0874167 L29.18305,23.0874167 L29.18305,36.6845833 C29.18305,37.0755833 28.8671333,37.3929167 28.4747167,37.3929167 C28.0837167,37.3929167 27.7663833,37.0755833 27.7663833,36.6845833 L27.7663833,22.3790833 C27.7663833,21.9866667 28.0837167,21.67075 28.4747167,21.67075 L35.7833,21.67075 C36.1743,21.67075 36.4916333,21.9866667 36.4916333,22.3790833 L36.4916333,36.6845833 C36.4916333,37.0755833 36.1743,37.3929167 35.7833,37.3929167" id="Fill-6"></path>
                            <path d="M39.6527833,5.74755833 C39.3793667,5.74755833 39.1187,5.587475 39.0025333,5.32114167 L37.3110333,1.41680833 L16.9776167,1.41680833 L15.2875333,5.32114167 C15.1302833,5.67955833 14.7180333,5.84530833 14.3553667,5.689475 C13.99695,5.53364167 13.8312,5.11714167 13.9870333,4.75730833 L15.8627,0.426558333 C15.9760333,0.167308333 16.2310333,0.000141666667 16.51295,0.000141666667 L37.7757,0.000141666667 C38.0590333,0.000141666667 38.3140333,0.167308333 38.42595,0.426558333 L40.3016167,4.75730833 C40.45745,5.11714167 40.2931167,5.53364167 39.9332833,5.689475 C39.8412,5.72914167 39.7462833,5.74755833 39.6527833,5.74755833" id="Fill-7"></path>
                            <path d="M9.65245833,37.3929167 C9.26145833,37.3929167 8.944125,37.0755833 8.944125,36.6845833 L8.944125,27.2779167 L4.19545833,27.2779167 L4.19545833,36.6845833 C4.19545833,37.0755833 3.87954167,37.3929167 3.487125,37.3929167 C3.096125,37.3929167 2.77879167,37.0755833 2.77879167,36.6845833 L2.77879167,26.5695833 C2.77879167,26.1771667 3.096125,25.86125 3.487125,25.86125 L9.65245833,25.86125 C10.0434583,25.86125 10.3607917,26.1771667 10.3607917,26.5695833 L10.3607917,36.6845833 C10.3607917,37.0755833 10.0434583,37.3929167 9.65245833,37.3929167" id="Fill-8"></path>
                            <path d="M42.074575,37.4164333 L0.707908333,37.4164333 C0.316908333,37.4164333 -0.000425,37.0991 -0.000425,36.7081 C-0.000425,36.3171 0.316908333,35.9997667 0.707908333,35.9997667 L42.074575,35.9997667 C42.465575,35.9997667 42.7829083,36.3171 42.7829083,36.7081 C42.7829083,37.0991 42.465575,37.4164333 42.074575,37.4164333" id="Fill-9"></path>
                            <path d="M9.65245833,37.3929167 C9.26145833,37.3929167 8.944125,37.0755833 8.944125,36.6845833 L8.944125,33.7818333 L4.19545833,33.7818333 L4.19545833,36.6845833 C4.19545833,37.0755833 3.87954167,37.3929167 3.487125,37.3929167 C3.096125,37.3929167 2.77879167,37.0755833 2.77879167,36.6845833 L2.77879167,33.0735 C2.77879167,32.6825 3.096125,32.3651667 3.487125,32.3651667 L9.65245833,32.3651667 C10.0434583,32.3651667 10.3607917,32.6825 10.3607917,33.0735 L10.3607917,36.6845833 C10.3607917,37.0755833 10.0434583,37.3929167 9.65245833,37.3929167" id="Fill-10"></path>
                        </g>
                    </g>
                </g>
            </g>
        </g>
    </g>
</svg>