<?xml version="1.0" encoding="UTF-8"?>
<svg width="45px" height="40px" viewBox="0 0 45 40" version="1.1" xmlns="http://www.w3.org/2000/svg" xmlns:xlink="http://www.w3.org/1999/xlink">
    <!-- Generator: Sketch 46.2 (44496) - http://www.bohemiancoding.com/sketch -->
    <title>my_house</title>
    <desc>Created with Sketch.</desc>
    <defs>
        <polygon id="path-1" points="0 40.1914065 44.8129032 40.1914065 44.8129032 0.999406452 0 0.999406452"></polygon>
    </defs>
    <g id="Designs" stroke="none" stroke-width="1" fill="none" fill-rule="evenodd">
        <g id="kvartira-1" transform="translate(-401.000000, -368.000000)">
            <g id="my_house" transform="translate(401.000000, 367.000000)">
                <path d="M16.0732903,38.7075355 L40.6506452,38.7075355 L40.7886452,6.96605161 L16.0732903,6.96605161 L16.0732903,38.7075355 Z M41.3896129,40.1914065 L15.3313548,40.1914065 C14.9218065,40.1914065 14.5894194,39.8590194 14.5894194,39.449471 L14.5894194,6.22411613 C14.5894194,5.81456774 14.9218065,5.48218065 15.3313548,5.48218065 L41.5335484,5.48218065 C41.7309032,5.48218065 41.9193548,5.56082581 42.0588387,5.70030968 C42.1983226,5.83979355 42.2754839,6.02972903 42.2754839,6.22708387 L42.1315484,39.4524387 C42.1300645,39.8605032 41.7976774,40.1914065 41.3896129,40.1914065 Z" id="Fill-1" fill="#333333"></path>
                <mask id="mask-2" fill="white">
                    <use xlink:href="#path-1"></use>
                </mask>
                <g id="Clip-4"></g>
                <path d="M20.6332258,18.4868258 L25.012129,18.4868258 L25.012129,12.1536645 L20.6332258,12.1536645 L20.6332258,18.4868258 Z M25.7540645,19.9706968 L19.8912903,19.9706968 C19.4817419,19.9706968 19.1493548,19.6383097 19.1493548,19.2287613 L19.1493548,11.411729 C19.1493548,11.0021806 19.4817419,10.6697935 19.8912903,10.6697935 L25.7540645,10.6697935 C26.1650968,10.6697935 26.496,11.0021806 26.496,11.411729 L26.496,19.2287613 C26.496,19.6383097 26.1650968,19.9706968 25.7540645,19.9706968 L25.7540645,19.9706968 Z" id="Fill-3" fill="#333333" mask="url(#mask-2)"></path>
                <path d="M31.7088387,18.4868258 L36.0877419,18.4868258 L36.0877419,12.1536645 L31.7088387,12.1536645 L31.7088387,18.4868258 Z M36.8296774,19.9706968 L30.9669032,19.9706968 C30.555871,19.9706968 30.2249677,19.6383097 30.2249677,19.2287613 L30.2249677,11.411729 C30.2249677,11.0021806 30.555871,10.6697935 30.9669032,10.6697935 L36.8296774,10.6697935 C37.2392258,10.6697935 37.5716129,11.0021806 37.5716129,11.411729 L37.5716129,19.2287613 C37.5716129,19.6383097 37.2392258,19.9706968 36.8296774,19.9706968 L36.8296774,19.9706968 Z" id="Fill-5" fill="#333333" mask="url(#mask-2)"></path>
                <path d="M37.4808,40.1667742 C37.0712516,40.1667742 36.7388645,39.8343871 36.7388645,39.4248387 L36.7388645,25.1826452 L30.5674452,25.1826452 L30.5674452,39.4248387 C30.5674452,39.8343871 30.2365419,40.1667742 29.8255097,40.1667742 C29.4159613,40.1667742 29.0835742,39.8343871 29.0835742,39.4248387 L29.0835742,24.4407097 C29.0835742,24.0296774 29.4159613,23.6987742 29.8255097,23.6987742 L37.4808,23.6987742 C37.8903484,23.6987742 38.2227355,24.0296774 38.2227355,24.4407097 L38.2227355,39.4248387 C38.2227355,39.8343871 37.8903484,40.1667742 37.4808,40.1667742" id="Fill-6" fill="#333333" mask="url(#mask-2)"></path>
                <path d="M41.5338452,7.0202129 C41.2474581,7.0202129 40.9744258,6.85253548 40.8527484,6.57356774 L39.0810065,2.48401935 L17.7830065,2.48401935 L16.0127484,6.57356774 C15.8480387,6.9489871 15.4162323,7.1226 15.0363613,6.95937419 C14.6609419,6.79614839 14.487329,6.35989032 14.6505548,5.9829871 L16.6152,1.44679355 C16.7339097,1.17524516 17.0010065,1.00014839 17.2962968,1.00014839 L39.5677161,1.00014839 C39.8644903,1.00014839 40.1315871,1.17524516 40.2488129,1.44679355 L42.2134581,5.9829871 C42.3766839,6.35989032 42.2045548,6.79614839 41.8276516,6.95937419 C41.7312,7.00092258 41.6317806,7.0202129 41.5338452,7.0202129" id="Fill-7" fill="#333333" mask="url(#mask-2)"></path>
                <path d="M10.1103548,40.1667742 C9.70080645,40.1667742 9.36841935,39.8343871 9.36841935,39.4248387 L9.36841935,29.5719355 L4.39448387,29.5719355 L4.39448387,39.4248387 C4.39448387,39.8343871 4.06358065,40.1667742 3.65254839,40.1667742 C3.243,40.1667742 2.9106129,39.8343871 2.9106129,39.4248387 L2.9106129,28.83 C2.9106129,28.4189677 3.243,28.0880645 3.65254839,28.0880645 L10.1103548,28.0880645 C10.5199032,28.0880645 10.8522903,28.4189677 10.8522903,28.83 L10.8522903,39.4248387 C10.8522903,39.8343871 10.5199032,40.1667742 10.1103548,40.1667742" id="Fill-8" fill="#333333" mask="url(#mask-2)"></path>
                <path d="M44.0705226,40.1914065 L0.741490323,40.1914065 C0.331941935,40.1914065 -0.00044516129,39.8590194 -0.00044516129,39.449471 C-0.00044516129,39.0399226 0.331941935,38.7075355 0.741490323,38.7075355 L44.0705226,38.7075355 C44.480071,38.7075355 44.8124581,39.0399226 44.8124581,39.449471 C44.8124581,39.8590194 44.480071,40.1914065 44.0705226,40.1914065" id="Fill-9" fill="#333333" mask="url(#mask-2)"></path>
                <path d="M10.1103548,40.1667742 C9.70080645,40.1667742 9.36841935,39.8343871 9.36841935,39.4248387 L9.36841935,36.3843871 L4.39448387,36.3843871 L4.39448387,39.4248387 C4.39448387,39.8343871 4.06358065,40.1667742 3.65254839,40.1667742 C3.243,40.1667742 2.9106129,39.8343871 2.9106129,39.4248387 L2.9106129,35.6424516 C2.9106129,35.2329032 3.243,34.9005161 3.65254839,34.9005161 L10.1103548,34.9005161 C10.5199032,34.9005161 10.8522903,35.2329032 10.8522903,35.6424516 L10.8522903,39.4248387 C10.8522903,39.8343871 10.5199032,40.1667742 10.1103548,40.1667742" id="Fill-10" fill="#333333" mask="url(#mask-2)"></path>
            </g>
        </g>
    </g>
</svg>