<?xml version="1.0" encoding="UTF-8"?>
<svg width="50px" height="50px" viewBox="0 0 50 50" version="1.1" xmlns="http://www.w3.org/2000/svg" xmlns:xlink="http://www.w3.org/1999/xlink">
    <!-- Generator: Sketch 46.2 (44496) - http://www.bohemiancoding.com/sketch -->
    <title>svet_active</title>
    <desc>Created with Sketch.</desc>
    <defs></defs>
    <g id="Designs" stroke="none" stroke-width="1" fill="none" fill-rule="evenodd">
        <g id="main-1-copy-3" transform="translate(-2159.000000, -1018.000000)">
            <g id="svet_active" transform="translate(2160.000000, 1019.000000)">
                <g id="Group-31-Copy">
                    <circle id="Oval-4" stroke="#FFB201" cx="24" cy="24" r="24"></circle>
                    <path d="M28.7158,33.6972 L26.7688,33.6972 L20.3518,33.6972 L18.4048,33.6972 C17.8248,33.6972 17.3518,33.2242 17.3518,32.6432 C17.3518,32.0632 17.8248,31.5912 18.4048,31.5912 L28.7158,31.5912 C29.2968,31.5912 29.7688,32.0632 29.7688,32.6432 C29.7688,33.2242 29.2968,33.6972 28.7158,33.6972 L28.7158,33.6972 Z M26.7688,36.8022 L20.3518,36.8022 C19.5388,36.8022 18.8518,36.3202 18.8518,35.7502 C18.8518,35.1792 19.5388,34.6972 20.3518,34.6972 L26.7688,34.6972 C27.5818,34.6972 28.2688,35.1792 28.2688,35.7502 C28.2688,36.3202 27.5818,36.8022 26.7688,36.8022 L26.7688,36.8022 Z M25.2038,38.8112 C24.8798,39.2182 24.2828,39.4242 23.4298,39.4242 C22.8048,39.4242 22.3368,39.2542 22.0398,38.9192 C21.7408,38.5832 21.6498,38.1332 21.6248,37.8022 L25.5048,37.8022 C25.5088,38.0932 25.4588,38.4912 25.2038,38.8112 L25.2038,38.8112 Z M26.2228,23.3352 L26.2228,22.6242 C26.3908,22.3072 27.0068,21.3772 28.1858,21.7552 C28.7318,21.9282 28.8518,22.4982 28.7988,22.8372 C28.7748,22.9882 28.6828,23.3412 28.3388,23.3412 C27.8278,23.3412 27.0328,23.3382 26.2228,23.3352 L26.2228,23.3352 Z M20.8988,23.3352 C20.0888,23.3382 19.2928,23.3412 18.7828,23.3412 C18.4388,23.3412 18.3458,22.9882 18.3228,22.8372 C18.2698,22.4982 18.3888,21.9282 18.9348,21.7552 C19.1298,21.6922 19.3088,21.6662 19.4728,21.6662 C20.3098,21.6662 20.7588,22.3622 20.8988,22.6242 L20.8988,23.3352 Z M21.8988,30.5912 L21.8988,24.3302 C22.6008,24.3272 23.2168,24.3242 23.5608,24.3222 C23.9038,24.3242 24.5208,24.3272 25.2228,24.3302 L25.2228,30.5912 L21.8988,30.5912 Z M17.7288,25.8962 C16.0678,24.2352 13.9998,22.1692 13.9998,17.0262 C13.9998,12.0682 18.8278,9.0852 23.5608,9.0082 C28.2928,9.0852 33.1208,12.0682 33.1208,17.0262 C33.1208,22.1692 31.0538,24.2352 29.3928,25.8962 C27.8148,27.4732 27.5108,30.4512 27.4988,30.5772 C27.4978,30.5822 27.4998,30.5862 27.4998,30.5912 L26.2228,30.5912 L26.2228,24.3352 C27.0328,24.3382 27.8278,24.3412 28.3388,24.3412 C29.0788,24.3412 29.6608,23.7992 29.7868,22.9912 C29.9178,22.1512 29.5148,21.1302 28.4898,20.8012 C26.7118,20.2312 25.6028,21.5372 25.2648,22.3062 C25.2368,22.3702 25.2228,22.4382 25.2228,22.5082 L25.2228,23.3302 C24.6858,23.3282 24.1958,23.3252 23.8428,23.3232 L23.8428,23.3202 C23.8428,23.3202 23.7358,23.3212 23.5608,23.3222 C23.3858,23.3212 23.2788,23.3202 23.2788,23.3202 L23.2788,23.3232 C22.9248,23.3252 22.4358,23.3282 21.8988,23.3302 L21.8988,22.5082 C21.8988,22.4382 21.8838,22.3702 21.8568,22.3062 C21.5188,21.5382 20.4108,20.2342 18.6308,20.8012 C17.6068,21.1302 17.2038,22.1512 17.3348,22.9912 C17.4608,23.7992 18.0428,24.3412 18.7828,24.3412 C19.2928,24.3412 20.0888,24.3382 20.8988,24.3352 L20.8988,30.5912 L19.6208,30.5912 C19.6208,30.5862 19.6228,30.5822 19.6228,30.5772 C19.6108,30.4512 19.3068,27.4732 17.7288,25.8962 L17.7288,25.8962 Z M28.7158,30.5912 L28.5038,30.5912 C28.5588,30.1412 28.8968,27.8052 30.0998,26.6032 C31.7968,24.9072 34.1208,22.5832 34.1208,17.0262 C34.1208,11.5442 28.9758,8.2132 23.8428,8.0182 C23.8118,8.0122 23.7828,8.0002 23.7498,8.0002 C23.6868,8.0002 23.6238,8.0072 23.5608,8.0082 C23.4968,8.0072 23.4338,8.0002 23.3708,8.0002 C23.3378,8.0002 23.3098,8.0122 23.2788,8.0182 C18.1458,8.2132 12.9998,11.5442 12.9998,17.0262 C12.9998,22.5832 15.3238,24.9072 17.0218,26.6032 C18.2188,27.8012 18.5618,30.1382 18.6178,30.5912 L18.4048,30.5912 C17.2728,30.5912 16.3518,31.5112 16.3518,32.6432 C16.3518,33.7162 17.1808,34.5882 18.2288,34.6792 C17.9938,34.9922 17.8518,35.3562 17.8518,35.7502 C17.8518,36.8822 18.9738,37.8022 20.3518,37.8022 L20.6218,37.8022 C20.6508,38.2922 20.7858,39.0082 21.2848,39.5752 C21.7798,40.1382 22.5018,40.4242 23.4298,40.4242 C24.6088,40.4242 25.4718,40.0882 25.9938,39.4252 C26.4188,38.8842 26.5058,38.2582 26.5028,37.8022 L26.7688,37.8022 C28.1478,37.8022 29.2688,36.8822 29.2688,35.7502 C29.2688,35.3562 29.1268,34.9922 28.8918,34.6792 C29.9408,34.5882 30.7688,33.7162 30.7688,32.6432 C30.7688,31.5112 29.8478,30.5912 28.7158,30.5912 L28.7158,30.5912 Z" id="Fill-1" fill="#FFB201"></path>
                </g>
            </g>
        </g>
    </g>
</svg>