<?xml version="1.0" encoding="UTF-8"?>
<svg width="29px" height="30px" viewBox="0 0 29 30" version="1.1" xmlns="http://www.w3.org/2000/svg" xmlns:xlink="http://www.w3.org/1999/xlink">
    <!-- Generator: Sketch 46.2 (44496) - http://www.bohemiancoding.com/sketch -->
    <title>work</title>
    <desc>Created with Sketch.</desc>
    <defs></defs>
    <g id="Symbols" stroke="none" stroke-width="1" fill="none" fill-rule="evenodd">
        <g id="LK-icons/2.Small/2.Voda" transform="translate(0.000000, -9.000000)" fill="#55B6E0">
            <g id="work" transform="translate(0.000000, 9.000000)">
                <path d="M1,6.5131 L1,9.5261 L15.869,3.7761 C16.604,3.4921 16.974,2.6611 16.692,1.9251 C16.554,1.5641 16.284,1.2801 15.931,1.1231 C15.577,0.9671 15.185,0.9591 14.827,1.1001 L1,6.5131 Z M1,28.5291 L8.049,28.5291 L8.049,12.2551 L8.049,12.2561 C8.04,12.2561 7.382,9.0211 5.306,8.9331 L1,10.5981 L1,28.5291 Z M8.549,29.5291 L0.5,29.5291 C0.224,29.5291 0,29.3051 0,29.0291 L0,6.1721 C0,5.9661 0.126,5.7821 0.318,5.7061 L14.462,0.1681 C15.071,-0.0689 15.736,-0.0549 16.335,0.2081 C16.934,0.4731 17.393,0.9561 17.626,1.5681 C18.104,2.8171 17.477,4.2261 16.229,4.7081 L6.778,8.3641 C8.502,9.4141 9.015,12.0251 9.041,12.1621 L9.049,29.0291 C9.049,29.3051 8.826,29.5291 8.549,29.5291 L8.549,29.5291 Z" id="Fill-1"></path>
                <path d="M8.5498,21.0892 C8.4028,21.0892 8.2578,21.0252 8.1588,20.9022 C7.9868,20.6862 8.0218,20.3712 8.2368,20.1982 C15.4408,14.4352 25.2558,14.8322 27.7168,15.0372 L27.7168,12.9452 L8.8938,12.9452 C8.6168,12.9452 8.3938,12.7222 8.3938,12.4452 C8.3938,12.1692 8.6168,11.9452 8.8938,11.9452 L28.2168,11.9452 C28.4928,11.9452 28.7168,12.1692 28.7168,12.4452 L28.7168,15.5892 C28.7168,15.7332 28.6548,15.8682 28.5478,15.9642 C28.4398,16.0592 28.2988,16.1072 28.1548,16.0852 C28.0408,16.0722 16.6478,14.7502 8.8618,20.9802 C8.7698,21.0532 8.6588,21.0892 8.5498,21.0892" id="Fill-4"></path>
                <path d="M28.2163,18.4223 L22.4963,18.4223 C22.2193,18.4223 21.9963,18.1983 21.9963,17.9223 L21.9963,15.5683 C21.9963,15.2923 22.2193,15.0683 22.4963,15.0683 C22.7723,15.0683 22.9963,15.2923 22.9963,15.5683 L22.9963,17.4223 L27.7163,17.4223 L27.7163,15.5893 C27.7163,15.3133 27.9403,15.0893 28.2163,15.0893 C28.4923,15.0893 28.7163,15.3133 28.7163,15.5893 L28.7163,17.9223 C28.7163,18.1983 28.4923,18.4223 28.2163,18.4223" id="Fill-7"></path>
                <path d="M25.3564,21.4408 C24.6334,22.5098 23.9514,23.9168 24.2504,24.5268 C24.4094,24.8538 24.9394,24.9218 25.3564,24.9218 C25.7724,24.9218 26.3024,24.8538 26.4614,24.5268 C26.7604,23.9148 26.0794,22.5078 25.3564,21.4408 M25.3564,25.9218 C24.3354,25.9218 23.6614,25.5998 23.3514,24.9648 C22.6034,23.4328 24.5614,20.7948 24.9614,20.2818 C25.1514,20.0398 25.5604,20.0398 25.7504,20.2818 C26.1504,20.7948 28.1084,23.4328 27.3604,24.9648 C27.0504,25.5998 26.3764,25.9218 25.3564,25.9218" id="Fill-10"></path>
            </g>
        </g>
    </g>
</svg>